# Blender v2.79 (sub 0) OBJ File: ''
# www.blender.org
o Box001
v -0.360950 0.159247 -0.052625
v 0.042723 0.147820 -0.347443
v 0.337659 0.150200 0.056299
v -0.066014 0.161627 0.351117
v -0.321829 2.658567 -0.095932
v -0.026894 2.660946 0.307810
v 0.376779 2.649519 0.012992
v 0.081844 2.647140 -0.390750
vn -0.0156 -0.9997 0.0173
vn 0.0156 0.9997 -0.0173
vn -0.8073 0.0229 0.5896
vn 0.5899 0.0048 0.8075
vn 0.8073 -0.0229 -0.5896
vn -0.5899 -0.0048 -0.8075
s off
f 1//1 2//1 3//1
f 3//1 4//1 1//1
f 5//2 6//2 7//2
f 7//2 8//2 5//2
f 1//3 4//3 6//3
f 6//3 5//3 1//3
f 4//4 3//4 7//4
f 7//4 6//4 4//4
f 3//5 2//5 8//5
f 8//5 7//5 3//5
f 2//6 1//6 5//6
f 5//6 8//6 2//6
